# xmcd CD database file
#
# Track frame offsets:
#	150
#	37252
#	83374
#	123691
#	151616
#	187413
#	228196
#	265699
#	305393
#
# Disc length: 4556 seconds
#
# Revision: 1
# Processed by: cddbd v1.5.2PL0 Copyright (c) Steve Scherf et al.
# Submitted via: CDex 1.51
#
DISCID=6c11ca09
DTITLE=Keith Jarrett, Gary Peacock, Jack DeJohnette - Yesterdays
DYEAR=2009
DGENRE=Jazz
TTITLE0=Strollin'
TTITLE1=You Took Advantage Of Me
TTITLE2=Yesterdays
TTITLE3=Shaw' nuff
TTITLE4=You've Changed
TTITLE5=Scrapple From The Apple
TTITLE6=A Sleepin' Bee
TTITLE7=Smoke Gets In Your Eyes
TTITLE8=Stella By Starlight
EXTD=YEAR: 2009
EXTT0=
EXTT1=
EXTT2=
EXTT3=
EXTT4=
EXTT5=
EXTT6=
EXTT7=
EXTT8=
PLAYORDER=
